<svg width="283" height="255" viewBox="0 0 283 255" fill="none" xmlns="http://www.w3.org/2000/svg">
<path d="M160.399 139.125C136.876 151.541 115.222 142.368 102.37 125.448C101.822 124.729 100.735 125.675 101.181 126.366C114.865 147.641 141.672 152.949 161.5 142C162.635 141.374 161.553 138.514 160.399 139.125Z" fill="#B1BCDA"/>
<path d="M168 54.855C132.339 30.8123 80.5488 64.0865 93.397 106.879C93.6928 107.866 95.3172 107.629 95.0314 106.573C83.7991 65.2287 129.935 36.891 162.746 54.855C185.985 67.5778 192.402 96.7333 179.363 119.046C178.699 120.181 181.818 122.142 182.5 121C195.563 99.1203 189.531 69.3643 168 54.855Z" fill="#B1BCDA"/>
<path d="M229.974 45.5981C208.183 46.4525 203.797 73.3568 215.052 80.6479C216.934 77.7574 220.757 72.1413 224.201 74.4213C226.004 75.6156 224.201 79.6383 221.371 84.2208C233.442 92.3424 251.935 84.8624 251.935 65.3268C251.929 54.5784 244.229 45.0397 229.974 45.5981ZM240.7 61.8512C237.729 64.9912 233.897 69.7006 230.995 73.4456C229.297 75.6325 230.379 74.582 221.023 68.0777C220.241 67.5335 221.132 66.2447 222.014 66.7157C224.707 68.1726 227.264 69.8667 229.655 71.7776C232.612 67.8499 235.901 64.1822 239.487 60.8148C240.23 60.2198 241.314 61.1997 240.7 61.8512Z" fill="#655AA8"/>
<path d="M172.886 120.82C166.013 120.961 160.278 125.961 160.914 132.997C162.298 148.35 184.957 145.776 183.759 131.102C183.224 124.55 179.759 120.672 172.886 120.82ZM178.122 132.721C177.488 133.402 175.092 133.144 173.547 133.184C173.606 134.594 173.677 136.004 173.775 137.414C173.788 137.551 173.774 137.69 173.732 137.821C173.691 137.952 173.624 138.074 173.535 138.179C173.445 138.284 173.336 138.37 173.213 138.432C173.09 138.494 172.955 138.531 172.817 138.541C172.68 138.55 172.541 138.532 172.411 138.487C172.28 138.442 172.16 138.372 172.057 138.28C171.954 138.188 171.871 138.077 171.812 137.952C171.753 137.828 171.72 137.693 171.714 137.555C171.714 136.114 171.556 134.683 171.506 133.234C169.982 133.38 168.447 133.38 166.922 133.234C166.347 133.066 166.029 132.116 166.684 131.813C168.245 131.39 169.859 131.194 171.477 131.23C171.536 129.602 171.444 127.96 171.665 126.295C171.7 126.096 171.804 125.915 171.959 125.785C172.115 125.655 172.311 125.584 172.514 125.584C172.717 125.584 172.913 125.655 173.069 125.785C173.224 125.915 173.328 126.096 173.363 126.295C173.472 127.884 173.442 129.492 173.482 131.101C174.413 131.101 177.444 130.775 178.066 131.426C178.162 131.504 178.239 131.6 178.294 131.709C178.349 131.819 178.381 131.938 178.386 132.06C178.392 132.183 178.371 132.305 178.326 132.418C178.281 132.532 178.212 132.635 178.124 132.721H178.122Z" fill="#655AA8"/>
<path d="M148.119 102.96C147.129 103.127 147.337 104.192 148.357 104.134C151.912 103.931 151.74 101.777 150.586 99.1992C148.847 95.3245 148.225 97.0842 148.298 97.3846C148.566 98.4914 150.487 101.686 149.506 102.555C149.086 102.806 148.609 102.945 148.119 102.96Z" fill="#191919"/>
<path d="M143.733 96.2594C142.459 96.3355 143.129 99.7125 144.248 99.446C145.534 99.14 144.93 96.1875 143.733 96.2594Z" fill="#191919"/>
<path d="M142.881 106.482C142.829 106.336 142.728 106.212 142.595 106.132C142.461 106.051 142.304 106.019 142.15 106.042C141.996 106.064 141.854 106.138 141.749 106.253C141.644 106.367 141.582 106.514 141.574 106.669C141.574 109.818 145.718 112.002 149.843 110.537C150.833 110.186 150.644 108.8 149.585 109.058C146.753 109.746 144.047 109.645 142.881 106.482Z" fill="#191919"/>
<path d="M153.348 90.0624C152.885 89.6867 152.318 89.4588 151.723 89.4085C151.128 89.3582 150.531 89.4878 150.011 89.7804C149.189 90.4417 149.304 91.5866 150.873 91.0931C151.535 90.9297 152.232 90.9923 152.854 91.2708C153.635 91.5429 153.972 90.6645 153.348 90.0624Z" fill="#191919"/>
<path d="M143.04 91.3653C141.989 91.4662 141.018 91.9664 140.329 92.762C139.639 93.5576 139.283 94.5874 139.335 95.6376C139.346 95.7212 139.373 95.8019 139.415 95.875C139.458 95.9481 139.514 96.0121 139.581 96.0634C139.649 96.1146 139.725 96.1521 139.807 96.1737C139.889 96.1952 139.974 96.2004 140.058 96.1889C141.308 96.0225 139.543 94.1486 143.574 93.1108C145.069 92.7259 144.208 91.3173 143.04 91.3653Z" fill="#191919"/>
<path d="M152.001 94.7196C150.832 95.1031 151.576 98.1445 152.635 97.7596C153.693 97.3747 153.179 94.3333 152.001 94.7196Z" fill="#191919"/>
<path d="M68.8696 83.5298C88.398 61.1571 54.7252 32.9931 35.8351 54.2522C27.4275 63.7214 26.6031 73.7313 35.9808 83.089C45.3586 92.4468 59.9225 93.7773 68.8696 83.5298ZM41.9367 68.7282C41.1325 68.7278 40.6977 67.4324 41.6674 67.2041C44.687 66.7288 47.7424 66.5114 50.8006 66.5542C50.6003 64.0048 50.2623 61.452 50.1472 58.8895C50.0321 56.3271 51.7501 57.2158 51.9557 58.7264C52.3162 61.3087 52.5274 63.9064 52.81 66.4868C55.2532 66.3569 57.6787 66.3595 60.0695 66.3972C60.3374 66.397 60.5947 66.5033 60.7849 66.6926C60.9751 66.882 61.0826 67.1388 61.0837 67.4067C61.0848 67.6747 60.9794 67.9317 60.7908 68.1212C60.6022 68.3108 60.3457 68.4174 60.0779 68.4175C57.7115 68.4524 55.3396 68.563 53.0205 68.535C53.2172 71.2093 53.522 74.021 53.7869 76.681C53.9346 78.1452 52.004 78.5602 51.7684 76.953C51.358 74.1756 51.1762 71.4088 50.983 68.5648C47.958 68.6147 44.9496 68.7309 41.9367 68.7282Z" fill="#C0D2E6"/>
<path d="M99.2396 116.843C98.7048 117.326 99.2396 118.387 99.9627 118.313C101.082 118.2 101.944 117.512 103.26 118.007C105.163 118.725 104.716 117.188 104.419 116.892C103.653 116.385 102.756 116.11 101.836 116.101C100.917 116.092 100.015 116.35 99.2396 116.843Z" fill="#191919"/>
<path d="M96.7733 113.577C96.3276 114 96.9417 114.969 97.5459 114.939C99.3189 114.375 100.517 113.732 102.191 114.623C103.09 115.1 103.33 113.99 102.626 113.311C101.015 111.758 98.051 112.363 96.7733 113.577Z" fill="#191919"/>
<path d="M92.3373 112.146C93.591 113.404 96.1875 108.48 99.6557 110.922C100.45 111.486 101.171 110.428 100.363 109.591C97.3606 106.499 90.9464 110.757 92.3373 112.146Z" fill="#191919"/>
<path d="M97.8133 125.152C97.5514 125.885 97.1173 126.545 96.5472 127.078C95.9772 127.61 95.2876 127.999 94.5362 128.211C93.5909 128.453 92.7049 128.884 91.932 129.477C91.1592 130.071 90.5157 130.815 90.0407 131.665C77.8137 148.857 80.2772 163.755 61.5398 177.835C61.3664 177.95 61.2461 178.129 61.2052 178.333C61.1643 178.536 61.2063 178.748 61.3219 178.921C61.4375 179.093 61.6172 179.213 61.8215 179.254C62.0259 179.295 62.2381 179.253 62.4114 179.138C81.3357 166.741 80.6649 147.321 91.6241 132.829C92.8976 131.137 93.4268 130.498 94.7371 130.115C95.8477 129.797 96.8675 129.223 97.7139 128.439C98.5603 127.655 99.2095 126.683 99.609 125.603C100.188 124.041 101.448 122.11 103.371 122.377C104.233 122.495 104.162 123.886 104.055 124.458C103.834 125.633 105.045 125.761 105.452 124.626C107.29 119.509 100.164 118.618 97.8133 125.152Z" fill="#191919"/>
<path d="M63.4613 184.101C48.5288 185.636 36.7051 177.192 43.4575 160.182C49.2844 145.518 70.1684 125.599 84.4047 117.356C87.3762 115.64 90.4892 113.202 90.4892 109.46C90.5296 106.897 90.7347 104.339 91.1033 101.802C91.1111 101.651 91.0658 101.502 90.9752 101.38C90.8846 101.259 90.7543 101.172 90.6068 101.136C90.4593 101.1 90.3037 101.116 90.1668 101.182C90.0299 101.247 89.9203 101.359 89.8567 101.496C88.3413 103.865 89.1025 107.338 88.4304 110.052C87.8644 112.331 86.1296 114 83.4779 115.499C69.601 123.371 47.9883 143.806 41.6689 159.034C34.7977 175.589 45.0437 188.693 63.5236 185.608C64.3655 185.47 64.323 184.014 63.4613 184.101Z" fill="#191919"/>
<path d="M221.872 76.1387C218.913 78.131 211.98 90.7533 211.415 94.5519C211.392 94.7367 211.434 94.924 211.536 95.0805C211.637 95.237 211.791 95.3526 211.97 95.407C212.149 95.4613 212.341 95.4509 212.513 95.3775C212.685 95.3041 212.826 95.1724 212.909 95.0059C215.442 88.6071 218.821 82.574 222.956 77.0665C223.501 76.3445 222.601 75.648 221.872 76.1387Z" fill="#191919"/>
<path d="M229.391 94.7591C228.214 93.8976 227.477 94.91 227.955 95.6178C229.018 97.1914 229.956 97.7963 230.232 100.255C230.373 101.498 231.597 101.361 231.647 100.114C231.704 99.1096 231.53 98.1053 231.139 97.1774C230.748 96.2496 230.151 95.4226 229.391 94.7591Z" fill="#191919"/>
<path d="M200.647 136.766C203.432 126.998 205.708 117.093 207.466 107.091C208.053 103.145 207.871 99.1241 206.931 95.247C206.035 90.6194 207.938 88.8653 208.437 86.1003C208.529 85.5871 207.8 84.3308 207.109 85.6167C204.402 90.6603 204.521 92.6526 205.021 95.7405C206.003 101.82 206.533 101.663 205.506 106.841C202.07 124.158 200.382 133.029 194.097 149.539C190.739 158.36 186.324 170.893 189.993 180.129C190.019 180.227 190.065 180.318 190.127 180.398C190.189 180.478 190.267 180.544 190.355 180.593C190.444 180.643 190.541 180.674 190.642 180.685C190.743 180.695 190.845 180.686 190.942 180.657C191.039 180.628 191.129 180.579 191.207 180.515C191.285 180.45 191.349 180.371 191.395 180.281C191.442 180.191 191.47 180.093 191.477 179.992C191.485 179.892 191.472 179.79 191.44 179.695C188.453 162.728 196.043 152.442 200.647 136.766Z" fill="#191919"/>
<path d="M223.202 92.7259C225.831 97.2069 223.934 100.007 225.796 99.8013C227.242 99.642 226.318 93.7383 224.578 91.6811C223.944 90.931 222.7 91.8715 223.202 92.7259Z" fill="#191919"/>
<path d="M225.211 103.493C223.214 106.45 221.929 109.828 221.459 113.363C216.567 142.747 219.36 171.835 210.804 184.41C206.647 190.519 200.466 188.809 194.662 187.746C193.583 187.547 193.057 189.315 194.146 189.62C204.247 192.454 210.398 191.116 214.547 181.724C221.01 167.092 219.106 141.575 223.143 113.498C223.805 108.89 224.739 108.246 226.42 104.203C226.716 103.491 225.636 102.781 225.211 103.493Z" fill="#191919"/>
<path d="M221.271 97.6313C222.271 95.9788 221.756 90.9507 220.488 89.3814C219.22 87.8121 217.916 88.9753 218.725 89.9835C220.623 92.3466 219.864 96.2791 219.864 97.197C219.864 98.115 220.623 98.7001 221.271 97.6313Z" fill="#191919"/>
<path d="M160.973 177.253C155.271 176.347 120.857 176.907 114.431 177.697C114.071 177.77 113.747 177.966 113.514 178.25C113.281 178.534 113.154 178.89 113.154 179.256C113.154 179.623 113.281 179.978 113.514 180.263C113.747 180.547 114.071 180.742 114.431 180.816C127.544 182.172 145.316 180.854 159.378 180.816C162.984 180.806 162.083 177.429 160.973 177.253Z" fill="#A4BAE1"/>
<path d="M163.478 162.985C150.395 161.022 127.523 162.159 113.322 163.103C109.746 163.34 111.058 167.292 112.509 168.038C114.479 169.046 159.221 167.831 163.488 167.407C165.716 167.184 165.795 163.332 163.478 162.985Z" fill="#A4BAE1"/>
<path d="M129.453 71.9651C112.614 77.3231 113.797 95.6531 120.619 101.933C120.536 103.611 120.98 105.273 121.889 106.688C122.798 108.103 124.126 109.201 125.69 109.829C124.662 115.803 123.206 121.696 121.332 127.463C121.001 128.45 122.311 128.691 122.679 127.69C124.624 122.525 126.063 117.185 126.976 111.744C127.401 109.092 128.036 108.677 126.185 108.015C122.311 106.627 120.827 100.011 124.729 98.2757C125.442 98.0328 126.205 97.9731 126.947 98.1023C127.689 98.2314 128.386 98.5452 128.974 99.0145C130.321 99.8929 137.214 91.9109 136.719 87.3312C142.155 87.2325 154.164 84.0459 153.982 82.4667C153.329 76.9099 146.387 66.5704 129.453 71.9651Z" fill="#191919"/>
<path d="M114.925 95.247C111.45 82.0536 118.887 71.0909 133.532 69.4722C136.504 60.2466 121.897 57.7495 121.52 66.9765C114.263 57.1065 95.695 74.8725 111.143 80.7945C98.259 83.121 103.804 100.62 114.925 95.247Z" fill="#191919"/>
<path d="M153.922 117.297C159.528 111.16 158.102 97.5566 153.972 85.1782C153.734 84.4732 152.753 85.0062 152.981 85.6125C155.043 91.0692 158.263 107.721 153.883 114.83C151.651 118.45 147.031 119.032 143.257 117.968C140.829 117.229 138.485 116.236 136.266 115.007C135.287 114.491 134.709 115.557 135.662 116.25C137.58 117.643 139.723 118.698 141.999 119.368C141.564 122.536 142.751 127.697 143.131 129.531C143.467 131.16 144.998 130.838 144.657 129.462C143.883 126.281 143.461 123.025 143.399 119.753C147.04 120.554 151.289 120.179 153.922 117.297Z" fill="#191919"/>
<path d="M191.999 147.808C192.979 148.339 193.801 146.808 192.92 146.141C191.137 144.792 184.631 141.733 182.521 141.911C181.867 141.969 181.53 143.052 182.184 143.273C185.577 144.508 188.86 146.025 191.999 147.808Z" fill="#191919"/>
<path d="M189.106 182.346C188.945 180.153 187.452 180.776 187.393 182.533C187.485 184.961 187.913 187.365 188.666 189.676C184.829 188.229 181.071 186.582 177.407 184.741C176.699 181.91 172.33 165.715 170.831 163.27C170.348 162.479 169.09 162.954 169.356 163.803C171.832 171.699 176.838 192.684 179.735 205.78C179.787 206 179.917 206.194 180.102 206.326C180.286 206.458 180.512 206.519 180.738 206.499C180.964 206.479 181.175 206.378 181.333 206.215C181.49 206.052 181.583 205.838 181.595 205.612C181.607 203.026 178.624 189.82 177.942 186.952C181.44 188.779 185.084 190.314 188.837 191.54C191.967 192.3 190.535 190.189 190.234 189.083C189.64 186.879 189.262 184.622 189.106 182.346Z" fill="#191919"/>
<path d="M90.4949 165.54C89.7286 169.993 89.2306 174.488 89.0035 179.001C82.5951 181.968 75.8477 184.146 68.9105 185.487C69.0118 182.777 68.9224 180.063 68.643 177.365C68.5397 176.436 67.3214 176.625 67.228 177.612C66.9438 180.658 66.8446 183.719 66.9309 186.777C66.9444 186.907 66.9836 187.032 67.046 187.146C67.1083 187.261 67.1928 187.361 67.2945 187.443C67.3961 187.525 67.5129 187.585 67.6383 187.622C67.7636 187.658 67.8949 187.67 68.0247 187.656C75.2315 186.525 82.237 184.364 88.8252 181.241C88.637 184.202 87.5304 200.544 88.0031 202.654C88.1686 203.395 89.5765 203.71 89.6176 202.812C90.1199 191.681 91.7953 171.758 91.9934 165.669C91.9789 165.49 91.9012 165.322 91.7741 165.195C91.647 165.067 91.4788 164.989 91.2991 164.973C91.1195 164.958 90.9402 165.006 90.793 165.11C90.6457 165.214 90.5401 165.366 90.4949 165.54Z" fill="#191919"/>
<path d="M148.684 132.257C151.797 132.563 154.87 133.192 157.853 134.132C159.245 134.555 159.456 132.942 158.477 132.612C155.782 131.676 152.999 131.014 150.17 130.638C148.479 130.429 148.238 130.085 146.931 131.408C138.678 139.762 126.466 137.84 119.372 129.098C118.225 127.688 117.391 127.762 115.777 128.053C113.537 128.422 111.4 129.259 109.508 130.51C108.801 130.993 109.508 132.069 110.231 131.779C112.588 130.789 115.05 130.067 117.569 129.627C124.452 139.845 140.296 141.729 148.684 132.257Z" fill="#191919"/>
<path d="M100.557 132.33C96.6973 133.708 93.0911 135.709 89.8822 138.252C89.7494 138.38 89.6668 138.55 89.6493 138.733C89.6319 138.916 89.6807 139.1 89.7871 139.25C89.8934 139.4 90.0502 139.508 90.2291 139.553C90.408 139.598 90.5972 139.577 90.7624 139.496C94.4272 137.936 96.6587 135.617 101.191 134.059C102.617 133.562 102.312 131.954 100.557 132.33Z" fill="#191919"/>
</svg>
