<svg width="403" height="403" viewBox="0 0 403 403" fill="none" xmlns="http://www.w3.org/2000/svg">
<path d="M94.4572 223.665C94.4572 224.284 94.6407 224.889 94.9845 225.404C95.3284 225.918 95.8171 226.319 96.3889 226.556C96.9607 226.793 97.5899 226.855 98.1969 226.734C98.804 226.613 99.3616 226.315 99.7992 225.878C100.237 225.44 100.535 224.883 100.656 224.276C100.776 223.668 100.714 223.039 100.478 222.467C100.241 221.896 99.8396 221.407 99.325 221.063C98.8104 220.719 98.2054 220.536 97.5865 220.536C96.7567 220.536 95.961 220.866 95.3743 221.453C94.7876 222.04 94.4577 222.835 94.4572 223.665Z" fill="#191919"/>
<path d="M105.787 223.665C105.787 224.284 105.971 224.889 106.315 225.404C106.659 225.918 107.147 226.319 107.719 226.556C108.291 226.793 108.92 226.855 109.527 226.734C110.134 226.613 110.692 226.315 111.13 225.878C111.567 225.44 111.865 224.883 111.986 224.276C112.107 223.668 112.045 223.039 111.808 222.467C111.571 221.896 111.17 221.407 110.655 221.063C110.141 220.719 109.536 220.536 108.917 220.536C108.087 220.536 107.291 220.866 106.705 221.453C106.118 222.04 105.788 222.835 105.787 223.665Z" fill="#191919"/>
<path d="M117.225 223.665C117.225 224.284 117.408 224.889 117.752 225.404C118.096 225.918 118.585 226.319 119.156 226.556C119.728 226.793 120.357 226.855 120.964 226.734C121.571 226.613 122.129 226.315 122.567 225.878C123.004 225.44 123.302 224.883 123.423 224.276C123.544 223.668 123.482 223.039 123.245 222.467C123.008 221.896 122.607 221.407 122.092 221.063C121.578 220.719 120.973 220.536 120.354 220.536C119.524 220.537 118.729 220.867 118.142 221.453C117.556 222.04 117.226 222.835 117.225 223.665Z" fill="#191919"/>
<path d="M128.557 223.665C128.557 224.284 128.741 224.889 129.084 225.404C129.428 225.918 129.917 226.319 130.489 226.556C131.061 226.793 131.69 226.855 132.297 226.734C132.904 226.613 133.461 226.315 133.899 225.878C134.337 225.44 134.635 224.883 134.755 224.276C134.876 223.668 134.814 223.039 134.577 222.467C134.341 221.896 133.939 221.407 133.425 221.063C132.91 220.719 132.305 220.536 131.686 220.536C130.857 220.537 130.061 220.867 129.475 221.453C128.888 222.04 128.558 222.835 128.557 223.665Z" fill="#191919"/>
<path d="M139.994 223.665C139.994 224.284 140.178 224.889 140.522 225.404C140.865 225.918 141.354 226.319 141.926 226.556C142.498 226.793 143.127 226.855 143.734 226.734C144.341 226.613 144.899 226.315 145.336 225.878C145.774 225.44 146.072 224.883 146.193 224.276C146.313 223.668 146.251 223.039 146.015 222.467C145.778 221.896 145.377 221.407 144.862 221.063C144.347 220.719 143.742 220.536 143.123 220.536C142.294 220.536 141.498 220.866 140.911 221.453C140.325 222.04 139.995 222.835 139.994 223.665Z" fill="#191919"/>
<path d="M151.327 223.665C151.327 224.284 151.51 224.889 151.854 225.404C152.198 225.918 152.687 226.319 153.258 226.556C153.83 226.793 154.459 226.855 155.066 226.734C155.673 226.613 156.231 226.315 156.669 225.878C157.106 225.44 157.404 224.883 157.525 224.276C157.646 223.668 157.584 223.039 157.347 222.467C157.11 221.896 156.709 221.407 156.194 221.063C155.68 220.719 155.075 220.536 154.456 220.536C153.626 220.536 152.83 220.866 152.244 221.453C151.657 222.04 151.327 222.835 151.327 223.665Z" fill="#191919"/>
<path d="M162.762 223.665C162.762 224.284 162.945 224.889 163.289 225.404C163.633 225.918 164.122 226.319 164.693 226.556C165.265 226.793 165.894 226.855 166.501 226.734C167.108 226.613 167.666 226.315 168.104 225.878C168.541 225.44 168.839 224.883 168.96 224.276C169.081 223.668 169.019 223.039 168.782 222.467C168.545 221.896 168.144 221.407 167.629 221.063C167.115 220.719 166.51 220.536 165.891 220.536C165.061 220.536 164.265 220.866 163.679 221.453C163.092 222.04 162.762 222.835 162.762 223.665Z" fill="#191919"/>
<path d="M174.096 223.665C174.096 224.284 174.279 224.889 174.623 225.404C174.967 225.918 175.456 226.319 176.028 226.556C176.6 226.793 177.229 226.855 177.836 226.734C178.443 226.613 179 226.315 179.438 225.878C179.876 225.44 180.174 224.883 180.294 224.276C180.415 223.668 180.353 223.039 180.116 222.467C179.879 221.896 179.478 221.407 178.964 221.063C178.449 220.719 177.844 220.536 177.225 220.536C176.395 220.536 175.6 220.866 175.013 221.453C174.426 222.04 174.096 222.835 174.096 223.665Z" fill="#191919"/>
<path d="M252.431 211C231.878 207.278 207.863 239.676 201.391 247.609C201.246 247.787 201.156 248.003 201.13 248.231C201.105 248.459 201.146 248.689 201.249 248.894C201.351 249.1 198.302 252.383 198.5 252.5C198.697 252.617 201.771 252.509 202 252.5C203.727 252.5 204.878 252.432 206.5 252.5C213.292 252.78 220.592 252.5 227.5 252.5C229.549 252.5 230.85 252.634 232.5 254C234.515 255.664 233.345 254.821 234.267 257.213C234.354 257.46 233.779 257.859 234 258C234.221 258.141 239.739 268.025 240 268C240.261 267.975 240.667 258.072 240.857 257.891C241.047 257.711 241.171 257.472 241.21 257.213C243.023 247.283 250.122 233.994 252.431 229.049C254.76 224.066 254.482 215.994 254.267 213.296C254.292 213.161 254.29 213.022 254.26 212.887C254.23 212.753 254.172 212.627 254.091 212.515C254.01 212.404 253.907 212.311 253.789 212.241C253.789 212.138 252.568 211.017 252.431 211Z" fill="#C0D2E6"/>
<path d="M329.692 235.308C329.615 235.167 329.503 235.048 329.367 234.961C329.231 234.875 329.076 234.824 328.916 234.813C328.755 234.803 328.594 234.833 328.448 234.9C328.302 234.968 328.176 235.071 328.08 235.201L319.339 246.316C319.339 246.316 306.931 210.598 290.851 222.468C290.851 222.468 278.118 227.103 278.56 238.761C279.001 250.42 268.092 304.152 268.092 304.152H318.793C318.793 304.152 329.692 303.181 336.707 290.017C343.721 276.853 352.675 252.357 352.675 252.357C352.675 252.357 333.597 243.174 329.692 235.308ZM317.931 249.876C317.528 251.085 315.64 253.132 312.643 258.077C309.182 263.788 308.767 266.121 308.009 267.145C307.57 267.878 307.001 269.029 306.175 269.303C301.924 269.303 314.741 246.501 317.612 247.944C318.326 248.173 318.152 249.211 317.931 249.876Z" fill="#C0D2E6"/>
<path d="M251.673 233.15C251.673 233.553 252.01 232.066 249.949 236.603L276.923 240.057C277.032 238.761 277.248 237.575 277.357 236.494L251.673 233.15Z" fill="#655AA8"/>
<path d="M243.908 253.437L274.334 257.322L274.765 253.761L244.768 249.983C244.218 251.919 244.504 251.049 243.908 253.437Z" fill="#655AA8"/>
<path d="M240.778 268.652C240.474 268.652 240.915 269.156 241.534 270.701L271.854 274.155C271.962 273.075 272.178 271.888 272.394 270.594L241.425 267.032C241.342 267.616 241.12 268.171 240.778 268.652Z" fill="#655AA8"/>
<path d="M250.598 290.988L269.158 293.146C269.141 292.925 269.178 292.702 269.265 292.497C269.373 291.744 269.48 290.664 269.696 289.586L248.979 287.21C249.517 288.399 250.062 289.693 250.598 290.988Z" fill="#655AA8"/>
<path d="M309.839 86.6148C309.33 81.3231 307.431 76.26 304.334 71.9395C301.73 68.3224 298.397 65.2915 294.55 63.0424C290.703 60.7934 286.426 59.3762 281.997 58.8823C280.047 58.7433 298.945 58.7735 42.6616 58.7735C39.6034 58.706 36.5509 59.0695 33.5941 59.8535C27.7045 61.3922 22.388 64.607 18.2898 69.108C14.1915 73.609 11.4876 79.2027 10.5062 85.2103C10.2527 86.6725 10.1086 88.1516 10.075 89.6352C10.075 90.3909 10.8125 263.796 10.9374 266.494C11.1289 270.594 11.3707 272.968 11.6931 270.486C12.9182 261.049 12.8799 141.157 12.8799 98.2917C21.0225 99.4543 306.995 97.7376 307.896 97.5119C307.896 98.0519 308.118 124.733 308.16 127.433C308.251 133.2 309.492 133.276 309.772 127.402C310.31 116.141 310.248 89.8972 309.839 86.6148ZM12.7731 96.6495V90.7153C12.7163 84.9567 14.3808 79.3125 17.5529 74.5061C20.7251 69.6997 25.2605 65.9503 30.5776 63.7385C33.1051 62.7435 35.754 62.0903 38.4543 61.796C41.7488 61.796 5.54126 61.6872 280.379 61.6872C287.504 61.9969 294.261 64.9377 299.343 69.9408C304.425 74.9439 307.471 81.6538 307.892 88.7728V96.4681C294.009 93.8244 95.2773 96.6495 12.7731 96.6495Z" fill="#191919"/>
<path d="M35.0026 80.8942C35.0026 82.7256 35.7301 84.482 37.0251 85.777C38.3201 87.072 40.0765 87.7996 41.908 87.7996C43.7394 87.7996 45.4958 87.072 46.7908 85.777C48.0858 84.482 48.8134 82.7256 48.8134 80.8942C48.8134 79.0627 48.0858 77.3063 46.7908 76.0113C45.4958 74.7163 43.7394 73.9888 41.908 73.9888C40.0765 73.9888 38.3201 74.7163 37.0251 76.0113C35.7301 77.3063 35.0026 79.0627 35.0026 80.8942Z" fill="#655AA8"/>
<path d="M46.3309 73.7732C44.6393 72.7386 42.6342 72.3415 40.6759 72.653C38.7177 72.9646 36.9349 73.9645 35.6479 75.4729C34.3609 76.9814 33.6542 78.8994 33.6548 80.8823C33.6555 82.8652 34.3634 84.7828 35.6514 86.2904C38.2407 89.2504 42.6193 88.9098 41.8012 87.7008C41.5392 87.179 39.9575 87.044 38.3475 85.436C37.6226 84.7181 37.1003 83.8214 36.8334 82.8367C36.5664 81.852 36.5643 80.8143 36.8273 79.8286C37.0903 78.8428 37.6091 77.9441 38.3311 77.2232C39.053 76.5024 39.9526 75.9851 40.9388 75.7237C42.008 75.4954 43.1208 75.5877 44.1377 75.9892C45.1546 76.3907 46.0304 77.0834 46.6553 77.9805C47.1205 78.736 47.4151 79.584 47.5186 80.4652C47.6221 81.3464 47.532 82.2396 47.2545 83.0823C46.977 83.9251 46.5189 84.6971 45.9122 85.3445C45.3054 85.9919 44.5647 86.499 43.7416 86.8304L42.446 87.4772C42.1236 87.6928 41.908 87.9084 42.1236 88.2328C42.2304 88.4484 42.5548 88.5572 42.8792 88.664C44.2902 88.8139 45.712 88.5069 46.9354 87.7884C48.1589 87.0698 49.1195 85.9776 49.6758 84.6723C49.9151 84.0794 50.096 83.4646 50.2158 82.8366C50.4778 81.1139 50.2529 79.3523 49.5664 77.7507C48.8799 76.1491 47.7592 74.7714 46.3309 73.7732Z" fill="#191919"/>
<path d="M68.1292 73.7732C66.4375 72.7421 64.4337 72.3476 62.4774 72.6604C60.5211 72.9732 58.7402 73.9728 57.4543 75.4799C56.1684 76.9871 55.4617 78.9031 55.4608 80.8843C55.46 82.8655 56.1651 84.7821 57.4497 86.2904C60.041 89.2504 64.4196 88.9099 63.6015 87.7009C63.3395 87.179 61.7577 87.044 60.1478 85.436C59.4229 84.7182 58.9005 83.8217 58.6334 82.8371C58.3664 81.8526 58.3641 80.815 58.6269 79.8293C58.8897 78.8436 59.4082 77.9448 60.1299 77.2238C60.8517 76.5029 61.751 75.9854 62.737 75.7237C63.8062 75.4957 64.9189 75.5882 65.9358 75.9896C66.9527 76.391 67.8285 77.0836 68.4536 77.9805C68.9184 78.7361 69.2127 79.5841 69.316 80.4652C69.4194 81.3463 69.3291 82.2394 69.0517 83.082C68.7743 83.9247 68.3163 84.6966 67.7098 85.344C67.1032 85.9914 66.3627 86.4987 65.5399 86.8304L64.2442 87.4772C63.9198 87.6928 63.7042 87.9084 63.9198 88.2328C64.0286 88.4484 64.3531 88.5572 64.6755 88.664C66.0866 88.8137 67.5086 88.5067 68.7324 87.7882C69.9561 87.0697 70.9171 85.9776 71.4741 84.6723C71.712 84.079 71.8929 83.4643 72.0141 82.8367C72.2761 81.114 72.0511 79.3523 71.3646 77.7507C70.6781 76.1491 69.5575 74.7714 68.1292 73.7732Z" fill="#191919"/>
<path d="M89.9255 73.7732C88.2339 72.7386 86.2287 72.3415 84.2705 72.653C82.3123 72.9646 80.5294 73.9645 79.2424 75.4729C77.9554 76.9814 77.2487 78.8994 77.2494 80.8823C77.25 82.8652 77.958 84.7827 79.246 86.2903C81.8372 89.2504 86.2158 88.9098 85.3957 87.7008C85.1358 87.179 83.554 87.044 81.944 85.436C81.2192 84.7182 80.6968 83.8217 80.4297 82.8371C80.1626 81.8526 80.1604 80.8149 80.4232 79.8292C80.686 78.8435 81.2045 77.9447 81.9262 77.2238C82.6479 76.5029 83.5473 75.9854 84.5333 75.7237C85.6025 75.4954 86.7153 75.5877 87.7322 75.9892C88.7492 76.3907 89.625 77.0834 90.2499 77.9805C90.7151 78.736 91.0097 79.584 91.1132 80.4652C91.2167 81.3464 91.1265 82.2396 90.849 83.0823C90.5716 83.9251 90.1135 84.6971 89.5067 85.3445C88.9 85.9919 88.1592 86.4989 87.3362 86.8304L86.0426 87.4772C85.7181 87.6928 85.5025 87.9084 85.7181 88.2328C85.827 88.4484 86.1494 88.5572 86.4738 88.664C87.8849 88.8137 89.3069 88.5067 90.5307 87.7882C91.7544 87.0697 92.7154 85.9775 93.2724 84.6723C93.51 84.079 93.6902 83.4643 93.8104 82.8366C94.0724 81.1139 93.8474 79.3523 93.1609 77.7507C92.4744 76.1491 91.3537 74.7714 89.9255 73.7732Z" fill="#191919"/>
<path d="M229.017 205.85H91.3279C89.7581 205.836 88.2566 205.206 87.1467 204.096C86.0369 202.986 85.4073 201.484 85.3937 199.914V193.118C85.4073 191.548 86.0369 190.046 87.1467 188.936C88.2566 187.826 89.7581 187.196 91.3279 187.181H229.017C230.586 187.196 232.087 187.826 233.197 188.937C234.306 190.047 234.935 191.548 234.949 193.118V199.914C234.935 201.484 235.109 203.89 234 205C232.891 206.11 230.586 205.836 229.017 205.85Z" fill="#A4BAE1"/>
<path d="M232.684 205.957C233.362 205.9 234 205.611 234.491 205.14C234.982 204.669 235.297 204.043 235.382 203.368C235.382 203.166 235.987 189.795 235.707 189.017C235.531 188.376 235.204 187.787 234.754 187.299C234.303 186.81 233.742 186.437 233.117 186.21C232.027 185.847 88.5572 185.71 87.5517 185.779C86.8981 185.912 86.2845 186.196 85.7598 186.608C85.2351 187.02 84.8138 187.549 84.5292 188.153C84.4869 188.282 84.098 189.42 84.098 189.563C84.098 204.146 84.0476 203.164 84.2068 203.483C84.3624 204.483 84.8735 205.394 85.6463 206.048C86.4191 206.702 87.4018 207.055 88.4141 207.043C217.866 206.697 236.599 206.507 231.497 205.431C226.46 204.359 179.96 204.244 171.503 204.244C82.3228 204.244 87.8983 204.482 87.2273 203.811C86.6228 203.207 86.7961 203.908 86.7961 189.785C86.8744 189.531 87.0134 189.299 87.2013 189.111C87.3892 188.923 87.6201 188.783 87.8741 188.705C88.0434 188.622 227.608 188.489 227.937 188.489C231.411 188.489 229.468 188.38 232.37 188.38C232.686 188.459 232.98 188.607 233.232 188.814C233.471 189.018 233.656 189.277 233.772 189.569C233.857 189.696 233.895 189.849 233.879 190C233.879 193.736 234.097 192.664 234.097 199.269C234.097 202.479 234.768 204.216 233.125 205.314C232.849 205.48 232.56 205.624 232.261 205.746C232.045 205.854 231.937 205.854 231.937 205.961C232.146 205.85 232.362 205.957 232.684 205.957Z" fill="#191919"/>
<path d="M160.172 106.144C152.959 106.144 145.908 108.283 139.91 112.291C133.912 116.298 129.237 121.994 126.477 128.659C123.717 135.323 122.994 142.656 124.402 149.731C125.809 156.806 129.282 163.304 134.383 168.405C139.484 173.506 145.982 176.979 153.057 178.386C160.132 179.794 167.465 179.071 174.129 176.311C180.794 173.55 186.49 168.876 190.497 162.878C194.505 156.88 196.644 149.829 196.644 142.616C196.65 137.824 195.71 133.079 193.879 128.652C192.049 124.224 189.362 120.201 185.975 116.813C182.587 113.426 178.564 110.739 174.136 108.908C169.709 107.078 164.963 106.138 160.172 106.144ZM175.926 146.069V151.572C175.749 153.273 175.157 154.904 174.201 156.322C172.918 158.17 170.691 158.988 168.5 159.5C168.284 159.5 168.373 160.098 168.158 160.098C168.316 161.711 168.352 163.335 168.265 164.954C168.466 164.954 168.238 164.924 169.56 165.276C170.991 165.78 172.396 166.356 173.768 167.003C174.795 167.517 175.774 168.4 175.5 169.5C175.161 170.175 174.05 168.687 173.768 168.405C173.006 168.151 171.723 168.812 170.5 168.405C168.572 170.335 162.583 171.5 159.5 171.5C156.296 171.5 151.85 170.271 150 167.5C149.464 167.5 146.618 170.246 145.5 169.5C144.239 168.869 144.796 168.244 146.037 167.5C147.75 166.583 150.628 165.02 152.5 164.5C152.334 162.916 152.691 161.063 153 159.5C151.825 159.188 149.963 158.242 149 157.5C148.037 156.758 148.101 156.056 147.5 155C146.826 153.846 146.144 152.904 146.037 151.572C145.938 150.795 145.5 151.781 145.5 146C145.282 146 144.716 145.5 144.5 145.5C144.004 145.325 143.853 144.891 143.5 144.5C142.855 143.868 142.782 143.858 142.5 143C142.108 142.016 141.677 141.059 141.715 140C141.752 138.941 142.039 138.454 142.5 137.5C142.73 136.992 143.045 136.322 143.5 136C143.955 135.678 145.444 135.048 146 135C142.762 131.871 137.592 125.238 146.037 117.5C151.953 112.082 157.577 112.818 162.963 115.093C162.963 115.093 175.811 119.401 178.61 121.567C180.556 123.072 177.854 130.199 176.02 134.84C177.802 134.84 179.69 136.565 179.69 139.696C180.457 141.965 178.487 146.39 175.926 146.069Z" fill="#B1BCDA"/>
<path d="M165.244 128.48C164.319 129.407 165.903 130.419 166.538 130.207C167.077 130.15 167.623 130.187 168.15 130.316C169.31 130.649 170.274 131.61 170.739 131.61C171.517 131.61 172.137 131.005 171.817 129.885C171.497 128.765 166.961 126.764 165.244 128.48Z" fill="#191919"/>
<path d="M158.014 148.227C158.353 148.312 158.268 148.443 160.279 148.443C160.754 148.405 161.208 148.233 161.59 147.948C161.972 147.663 162.266 147.276 162.437 146.831C162.437 145.592 160.968 145.644 159.741 145.644C160.439 143.086 161.267 140.566 162.222 138.092C162.222 136.871 162.26 136.341 161.359 136.041C160.45 135.813 159.493 137.268 159.092 138.199C158.076 140.676 157.282 143.238 156.719 145.856C156.719 146.692 157.065 147.994 158.014 148.227Z" fill="#191919"/>
<path d="M166.971 134.092C166.215 134.092 165.56 134.957 165.46 136.035C165.379 136.49 165.465 136.959 165.703 137.356C165.94 137.752 166.314 138.05 166.753 138.193C167.509 138.193 168.164 137.33 168.265 136.25C168.365 135.17 167.725 134.092 166.971 134.092Z" fill="#191919"/>
<path d="M154.561 134.092C152.896 133.854 152.334 137.921 154.238 138.193C155.899 138.431 156.457 134.362 154.561 134.092Z" fill="#191919"/>
<path d="M164.704 149.199C163.823 150.183 162.761 150.989 161.575 151.572C157.99 152.918 158.754 150.351 156.827 151.466C155.943 151.977 156.902 153.724 158.014 154.27C161.331 155.901 165.379 153.128 167.509 150.17C167.621 149.706 167.621 149.223 167.509 148.759C167.329 148.535 167.092 148.361 166.824 148.257C166.555 148.153 166.264 148.122 165.979 148.166C165.695 148.211 165.427 148.33 165.203 148.511C164.979 148.692 164.807 148.93 164.704 149.199Z" fill="#191919"/>
<path d="M177.118 134.739C176.915 134.65 176.693 134.613 176.472 134.632C178.414 129.998 180.983 122.792 179.061 121.359C176.224 119.244 163.414 114.885 163.414 114.885C157.911 112.618 150.921 111.673 145.078 117.043C136.694 124.741 141.515 131.61 144.754 134.739C144.335 134.731 143.923 134.844 143.567 135.063C143 135.468 142.521 135.982 142.156 136.575C141.511 137.94 141.28 139.465 141.491 140.96C141.702 142.456 142.346 143.857 143.343 144.991C143.712 145.363 144.152 145.656 144.637 145.854C144.841 145.942 145.064 145.98 145.285 145.963V151.572C145.423 152.899 145.827 154.184 146.472 155.35C147.074 156.407 147.88 157.332 148.844 158.073C149.807 158.814 150.909 159.356 152.084 159.667C151.771 161.229 151.698 162.83 151.866 164.414C149.445 164.985 147.167 166.05 145.177 167.543C144.818 167.902 144.862 167.847 144.421 168.73C144.421 168.839 144.314 168.946 144.314 169.054C144.339 169.195 144.394 169.328 144.476 169.445C144.557 169.562 144.663 169.659 144.786 169.731C144.909 169.803 145.047 169.847 145.188 169.861C145.33 169.875 145.473 169.857 145.608 169.81C147.044 169.363 148.45 168.825 149.817 168.198C152.267 171.873 158.494 171.898 159.745 171.976C162.798 172.166 169.345 170.469 171.291 168.523C172.678 169.276 174.168 169.819 175.714 170.135C176.47 169.758 176.52 169.282 176.145 168.724C175.2 167.266 173.734 166.224 172.047 165.81C170.964 165.356 169.844 164.995 168.7 164.732C168.766 163.113 168.731 161.491 168.593 159.876C168.809 159.876 169.024 159.767 169.24 159.767C170.885 159.399 172.394 158.577 173.596 157.394C174.797 156.212 175.643 154.717 176.038 153.078C176.478 151.687 176.363 151.482 176.363 145.848C178.97 146.174 180.57 141.979 180.57 139.374C180.686 138.308 180.395 137.238 179.754 136.378C179.114 135.519 178.173 134.933 177.118 134.739ZM145.179 142.94C144.591 142.203 144.228 141.313 144.133 140.376C144.037 139.438 144.213 138.493 144.639 137.653C144.897 137.397 144.903 137.437 145.179 137.437C145.418 137.437 145.551 136.119 145.173 142.94H145.179ZM152.302 167.543C152.302 167.543 153.394 167.267 154.299 167.025C154.437 166.989 154.56 166.907 154.648 166.794C154.735 166.68 154.782 166.54 154.782 166.397C154.88 164.333 154.845 162.266 154.675 160.207H165.897C165.631 161.273 165.675 161.087 165.681 166.197C165.681 167.451 167.092 167.334 167.731 167.652C166.106 167.245 161.248 172.021 152.296 167.543H152.302ZM167.414 157.4C152.957 157.4 153.712 157.456 153.386 157.293C152.57 157.179 151.785 156.9 151.08 156.474C150.375 156.047 149.764 155.481 149.285 154.81C147.673 152.38 147.992 152.167 147.992 141.969C147.992 140.049 147.804 138.221 147.452 133.985C147.361 133.445 147.296 131.779 146.912 131.394C147.627 131.505 148.355 131.505 149.07 131.394C149.07 131.612 148.951 132.248 149.285 132.581C149.464 132.748 149.676 132.876 149.907 132.957C150.138 133.037 150.384 133.068 150.628 133.048C150.872 133.028 151.109 132.957 151.324 132.839C151.538 132.721 151.726 132.56 151.875 132.365C152.46 131.741 153.156 131.23 153.926 130.856C169.673 127.707 171.658 124.837 173.024 126.222C173.133 126.328 173.242 126.546 173.348 126.653C173.348 126.762 173.457 126.868 173.457 126.977V150.924C173.445 151.752 171.829 157.4 167.402 157.4H167.414ZM176.034 143.267V137.006C176.605 137.576 177.584 137.812 177.33 139.595C177.303 140.926 176.848 142.213 176.034 143.267Z" fill="#191919"/>
<path d="M110.221 258.508C108.832 255.486 104.176 254.623 99.3214 256.241C100.782 247.968 93.7821 244.365 87.8822 251.494C85.1358 245.248 78.589 245.431 76.2295 253.221C73.4246 248.788 68.907 246.662 65.7616 248.474C63.2912 249.884 62.5255 253.543 63.7123 257.428C59.0778 256.997 55.0821 258.839 54.3244 261.96C53.464 265.523 57.226 269.567 62.6323 270.701C63.6319 270.896 64.6406 271.04 65.6548 271.132V274.04H95.644V270.695C104.113 271.507 112.528 263.562 110.221 258.508Z" fill="#099672" fill-opacity="0.33"/>
<path d="M103.843 293.311C105.427 284.782 104.073 272.769 103.629 269.514C106.972 268.056 109.607 265.343 110.968 261.96C111.506 261.638 111.615 260.666 111.399 259.802C110.96 258.488 110.321 258.19 110.535 258.833C111.355 262.111 107.311 267.767 100.176 269.19H89.7098C94.0038 263.056 100.708 263.993 100.069 262.716C99.2629 261.507 93.1615 261.339 88.0918 267.681C89.6675 260.852 92.9459 256.735 92.9459 255.591C93.5182 253.872 90.1249 256.177 88.1986 260.878C87.0314 263.61 86.1985 266.474 85.7181 269.406H82.1556C82.1556 268.432 82.1415 267.461 82.1556 266.383C82.2503 258.994 82.6754 257.477 82.3712 256.564C82.3712 253.997 79.8907 252.06 79.8907 269.406H78.2787C78.2122 269.204 76.7977 260.151 72.1289 255.486C71.9133 255.377 71.1738 254.468 70.9421 255.161C70.897 255.654 71.0107 256.148 71.2665 256.572C73.112 260.157 74.5969 263.915 75.6995 267.793C70.2933 260.362 62.6282 261.845 63.8291 263.046C64.4981 264.054 69.6344 263.524 74.0815 269.305C61.4776 269.305 62.336 269.528 60.3795 268.549C57.76 267.237 55.2432 264.731 56.0633 261.859C57.9171 258.152 61.9592 258.404 65.6668 258.621C64.914 256.514 64.6919 254.254 65.02 252.04C66.0638 248.387 69.2072 248.212 72.3566 250.313C74.2069 251.825 75.7758 253.651 76.9911 255.708C79.9915 245.203 85.2768 246.428 87.9971 253.227C91.8256 248.125 97.2661 246.003 98.6766 251.285C99.2046 253.187 99.2413 255.192 98.7833 257.112C100.25 256.745 104.188 255.018 107.631 256.248C108.697 256.632 109.658 257.261 110.438 258.083C111.198 258.464 110.438 255.325 106.122 254.414C104.334 254.132 102.514 254.132 100.726 254.414C101.463 252.941 100.192 246.511 96.0913 245.997C94.6635 245.812 93.2119 245.992 91.8727 246.52C90.5334 247.049 89.3503 247.909 88.4343 249.02C88.4343 248.818 88.4706 248.961 88.1099 248.482C87.6655 247.762 87.079 247.141 86.3863 246.655C85.6936 246.17 84.9092 245.831 84.0811 245.66C83.2529 245.488 82.3985 245.487 81.5699 245.656C80.7413 245.826 79.956 246.163 79.262 246.646C78.01 247.688 76.9819 248.972 76.2395 250.422C70.2832 243.277 60.9719 245.586 62.6443 255.603C51.9487 255.603 49.3776 265.72 61.0323 270.715C59.5599 278.2 59.3285 285.876 60.3472 293.436C51.2979 293.463 12.9443 292.963 16.791 294.885C19.9404 296.461 57.2784 296.012 60.7522 295.995C61.1711 297.693 62.0905 299.226 63.3912 300.394C64.692 301.563 66.3139 302.313 68.0465 302.548C77.2228 303.598 93.6189 304.811 99.4483 301.684C101.461 300.298 102.844 298.174 103.299 295.774C129.605 295.601 154.752 295.399 155.961 295.198C165.633 292.78 113.614 293.287 103.843 293.311Z" fill="#191919"/>
<path d="M189.63 283.218C189.63 295.643 203.42 295.427 205.492 285.701C206.114 282.781 205.601 282.14 202.687 282.463C201.329 282.463 199.684 282.866 198.695 281.385C198.296 280.755 198.084 280.025 198.084 279.28C198.084 278.535 198.296 277.805 198.695 277.175C199.864 274.685 199.235 273.885 196.537 273.939C193.472 274 189.63 277.302 189.63 283.218Z" fill="#191919"/>
<path d="M198.911 272.968C202.796 272.968 205.492 271.132 206.247 268.334C206.288 267.982 206.251 267.626 206.14 267.29C206.028 266.955 205.844 266.648 205.6 266.391C204.69 265.954 203.694 265.727 202.685 265.726C201.676 265.725 200.679 265.95 199.768 266.385C198.857 266.819 198.055 267.453 197.421 268.238C196.787 269.023 196.337 269.941 196.104 270.923C195.884 272.001 196.213 272.65 197.293 272.865C197.939 272.859 198.586 272.968 198.911 272.968Z" fill="#191919"/>
<path d="M284.921 213.943C285.253 212.369 286.217 208.855 286.217 208.115C286.217 207.204 286.307 206.066 285.352 206.066C284.365 206.066 283.539 208.059 283.303 208.978L281.522 216.201C281.448 216.498 281.487 216.812 281.633 217.081C281.778 217.35 282.019 217.555 282.308 217.656C287.524 219.488 288.657 219.899 289.346 219.554C289.44 219.552 289.532 219.53 289.617 219.49C289.701 219.45 289.777 219.392 289.838 219.321C289.899 219.249 289.944 219.166 289.971 219.076C289.997 218.986 290.005 218.892 289.993 218.799C289.993 217.836 288.131 216.768 287.188 216.534C287.061 216.534 284.433 215.563 284.274 215.563C284.563 215.055 284.781 214.51 284.921 213.943Z" fill="#191919"/>
<path d="M303.795 195.491L306.925 194.951C310.27 193.764 308.218 189.124 306.816 186.643C311.561 187.169 316.611 183.484 314.801 178.658C314.586 178.227 314.37 177.902 314.155 177.471C317.422 175.434 320.367 172.921 322.894 170.016C330.309 159.292 303.886 125.293 281.026 127.717C262.351 129.697 260.848 144.766 267.538 152.536C268.805 153.325 268.803 152.177 265.704 157.17C261.652 163.705 252.782 179.023 254.051 186.629C255.288 194.063 259.602 196.317 266.46 200.009C265.228 201.651 265.307 201.909 262.143 211.986C261.21 211.986 258.605 211.97 257.612 212.095C256.959 212.095 254.992 212.752 255.56 213.604C255.889 214.912 260.598 214.859 263.145 214.813C263.481 214.806 263.807 214.694 264.076 214.491C264.344 214.287 264.542 214.005 264.64 213.683C267.044 205.814 268.402 201.679 268.402 200.988C279.855 206.078 287.099 204.069 285.126 203.577C282.962 202.854 278.255 203.849 266.891 197.532C260.02 193.718 255.002 190.131 256.856 182.42C259.296 172.27 265.392 162.332 271.207 153.718L273.258 153.394C272.666 153.998 272.154 154.446 272.825 155.121C273.228 155.711 274.509 155.691 275.201 155.552C280.012 155.552 277.548 154.778 282.753 157.386C282.954 157.587 285.806 157.922 284.163 155.443C281.266 151.095 266.05 154.548 302.5 149.293C310.751 154.008 309.244 168.637 306.06 176.595C308.464 176.998 310.796 177.739 311.563 180.046C312.331 182.353 308.966 184.171 307.892 184.171C306.964 184.391 305.995 184.353 305.087 184.062C304.243 183.641 302.897 183.377 302.605 183.955C302.498 184.171 302.282 184.28 302.173 184.387C299.127 189.091 295.737 193.563 292.03 197.766C290.418 199.564 288.201 201.806 289.549 201.329C291.081 200.515 292.497 199.498 293.757 198.306C294.297 198.522 295.167 198.953 296.348 199.386C302.715 201.21 303.795 195.491 303.795 195.491Z" fill="#191919"/>
<path d="M268.398 175.744C267.996 176.349 267.806 177.069 267.858 177.794C267.858 179.476 272.879 182.458 276.168 180.816C276.285 180.734 276.371 180.614 276.41 180.477C276.45 180.339 276.44 180.192 276.383 180.06C275.958 179.212 271.626 178.001 270.772 177.147C270.772 175.77 284.474 164.763 284.474 163.336C284.474 161.373 280.752 163.858 279.295 165.17C278.971 165.385 275.948 167.974 273.037 170.779C271.274 172.218 269.713 173.888 268.398 175.744Z" fill="#191919"/>
<path d="M292.034 169.917C291.169 171.327 291.278 172.939 292.25 173.477C294.597 174.783 297.531 169.554 295.272 168.299C294.299 167.759 292.779 168.514 292.034 169.917Z" fill="#191919"/>
<path d="M273.581 165.276C275.93 166.582 278.864 161.353 276.603 160.098C274.254 158.794 271.32 164.021 273.581 165.276Z" fill="#191919"/>
<path d="M298.184 163.443C300.293 165.131 301.005 169.155 302.931 168.19C303.566 167.767 303.58 167.217 303.58 166.463C303.58 162.473 296.018 157.839 294.839 159.02C293.884 159.02 293.702 160.261 294.299 160.853C294.77 162.03 296.132 161.579 298.184 163.443Z" fill="#191919"/>
<path d="M268.509 189.124C271.749 192.336 277.51 191.977 281.675 190.311C282.802 189.94 283.784 189.223 284.48 188.261C284.73 188.012 284.788 187.337 284.48 187.183C283.448 186.492 280.953 187.605 278.546 188.261C276.138 188.918 272.098 189.082 270.56 187.29C269.311 186.22 269.184 184.161 267.862 184.161C266.881 184.487 266.584 187.194 268.509 189.124Z" fill="#191919"/>
<path d="M295.701 220.201C294.089 219.665 287.44 222.289 282.862 225.489C278.832 225.489 264.223 232.755 255.992 220.417C255.885 220.201 255.669 220.094 255.56 219.879C255.56 218.648 255.407 213.937 254.265 214.698C253.328 215.401 252.653 225.481 251.893 227C251.893 228.104 245.731 236.152 241.965 249.336C240.702 253.769 238.888 262.55 239.807 267.141C239.733 267.068 234.411 255.609 234.411 255.379C233.814 254.313 232.912 253.448 231.822 252.897C230.139 252.054 231.016 252.25 218.009 252.25C218.727 250.955 219.375 249.622 219.951 248.258C222.476 241.945 230.228 232.515 231.066 230.02C231.37 229.716 231.161 228.04 229.555 229.158C226.093 231.576 216.175 246.43 216.175 252.034H199.126C207.424 243.736 223.935 218.865 250.382 211.676C256.225 210.118 246.33 208.591 235.308 214.803C234.849 214.015 234.102 213.437 233.224 213.191C232.473 212.941 87.9024 212.516 87.6586 212.76C86.7671 212.964 85.9591 213.434 85.3423 214.11C84.7256 214.785 84.3294 215.632 84.2069 216.538C84.2069 231.118 84.1545 230.139 84.3137 230.458C84.4705 231.458 84.9822 232.368 85.7551 233.022C86.5281 233.676 87.5106 234.029 88.523 234.018C154.482 233.665 191.691 233.532 211.66 233.345C202.677 242.614 196.968 251.22 196.968 252.145C152.6 252.145 155.387 252.087 154.885 252.254C154.053 252.374 153.255 252.663 152.538 253.102C151.821 253.541 151.202 254.121 150.717 254.808C150.232 255.495 149.892 256.273 149.718 257.095C149.544 257.917 149.539 258.766 149.704 259.59C149.704 260.707 168.265 306.675 168.265 301.889C167.827 297.1 152.296 259.03 152.296 258.837C152.191 258.012 152.399 257.178 152.878 256.499C153.357 255.82 154.073 255.345 154.885 255.168C155.782 254.867 229.462 255.168 229.664 255.168C230.515 255.447 231.241 256.018 231.713 256.78C231.945 257.009 246.06 288.554 252.431 300.59C252.54 300.912 252.756 301.128 252.862 301.452C195.048 301.452 174.789 301.251 169.02 303.179C166.985 303.858 167.235 305.476 172.474 305.986C178.642 306.59 184.882 307.171 191.141 307.171C282.702 307.171 283.766 307.011 287.931 306.415C299.643 305.583 301.23 301.452 269.049 301.452C271.999 297.765 280.27 236.007 280.27 235.09C280.27 228.973 286.19 226.508 291.278 223.328C292.511 222.561 296.916 220.505 295.701 220.201ZM86.905 229.805C86.905 215.174 85.8974 215.669 89.7098 215.669C240.52 215.669 232.438 214.835 233.454 215.903C226.152 220.283 219.418 225.546 213.403 231.572C94.2637 229.269 86.905 233.649 86.905 229.805ZM277.681 234.336C277.681 238.959 268.6 293.064 268.6 300.428C268.6 301.158 267.247 301.287 254.696 301.355C250.148 288.85 242.062 271.842 240.776 268.982C242.497 268.982 241.417 255.774 248.544 239.741C252.355 231.171 255.452 228.255 255.452 223.663C261.458 231.161 270.318 231.241 279.515 228.735C278.262 230.33 277.612 232.317 277.681 234.345V234.336Z" fill="#191919"/>
<path d="M370.049 207.9C371.427 206.584 372.947 205.426 374.581 204.446C378.318 202.163 380.754 201.595 381.055 200.994C382.989 200.025 381.933 196.519 372.962 202.074C363.256 208.083 364.86 213.086 370.049 207.9Z" fill="#191919"/>
<path d="M379.761 208.44C374.566 211.039 374.266 211.992 373.178 213.074C372.652 214.128 372.573 214.507 373.178 214.908C373.97 215.172 374.216 214.872 376.092 213.937C376.751 213.606 376.376 213.602 377.172 213.074C384.083 208.466 392.012 207.904 390.874 205.629C389.677 203.837 381.689 207.474 379.761 208.44Z" fill="#191919"/>
<path d="M392.063 213.943C390.376 213.519 389.663 213.918 385.48 215.238C377.182 217.858 377.671 220.632 379.761 220.632C380.475 220.529 381.167 220.31 381.81 219.986C388.802 216.49 392.028 216.923 392.925 215.129C392.649 214.853 393.054 214.438 392.063 213.943Z" fill="#191919"/>
<path d="M333.144 238.761C334.448 239.088 336.243 236.746 337.138 235.848C340.454 232.531 344.162 229.521 344.476 229.049C344.69 228.833 344.908 228.187 345.123 227.971C345.123 227.862 345.23 227.755 345.23 227.647C345.223 227.509 345.183 227.375 345.114 227.256C345.045 227.137 344.948 227.036 344.832 226.962C344.716 226.888 344.583 226.843 344.446 226.831C344.309 226.818 344.171 226.839 344.043 226.891C343.215 227.073 342.441 227.443 341.778 227.971C339.196 230.047 336.745 232.281 334.44 234.661C333.984 235.265 332.606 236.474 332.606 238.006C332.606 238.338 332.523 238.451 333.144 238.761Z" fill="#191919"/>
<path d="M389.471 221.821C374.051 221.821 368.344 225.92 370.264 225.92C373.136 225.92 372.682 224.193 388.601 224.193C388.71 224.193 388.601 224.302 388.601 224.302C383.176 227.929 382.636 227.068 377.702 229.589C373.537 231.717 368.656 236.571 364.647 238.977C362.546 240.479 360.092 241.409 357.524 241.675C349.03 241.675 341.258 311.471 310.693 300.916C305.857 299.246 303.894 294.065 303.894 295.953C303.894 299.125 308.511 304.263 317.596 304.263C343.177 304.263 350.699 251.305 357.737 244.266C364.286 244.266 372.388 235.56 378.133 232.176C381.444 230.52 394.201 226.494 390.973 222.466C390.983 222.307 389.635 221.821 389.471 221.821Z" fill="#191919"/>
<path d="M349.224 221.821C349.224 217.821 348.74 216.61 349.546 214.591C350.733 212.218 352.827 210.255 354.08 206.497C354.684 204.079 354.886 201.057 353.109 199.267C351.295 198.357 352.303 202.491 351.166 206.066C349.907 209.993 345.988 212.331 346.532 217.181C346.238 223.175 349.224 224.116 349.224 221.821Z" fill="#191919"/>
<path d="M360.985 232.178C362.051 232.535 362.573 231.092 364.115 230.129C366.533 228.622 366.585 229.277 367.028 228.833C367.143 228.809 367.252 228.761 367.348 228.692C367.444 228.623 367.525 228.536 367.586 228.435C367.646 228.334 367.686 228.221 367.701 228.104C367.716 227.988 367.707 227.869 367.675 227.755C366.942 225.553 360.23 229.108 360.23 231.747C360.512 231.747 360.633 232.003 360.985 232.178Z" fill="#191919"/>
<path d="M307.892 227.971C309.598 230.1 311.115 232.374 312.424 234.768C312.855 235.627 313.397 236.425 314.036 237.143C314.763 237.869 314.822 238.006 315.116 238.006C315.72 238.308 316.359 237.639 316.087 236.819C315.684 232.426 307.866 222.728 303.892 220.741C303.292 220.357 302.637 220.067 301.95 219.879C301.672 219.784 300.741 219.677 300.539 219.879C300.402 219.957 300.289 220.073 300.214 220.212C300.14 220.352 300.106 220.51 300.118 220.668C300.129 220.826 300.185 220.977 300.279 221.105C300.373 221.232 300.501 221.33 300.648 221.388C301.51 222.144 302.26 222.899 303.129 223.546C303.237 223.546 303.344 223.762 303.669 223.977C305.22 225.148 306.636 226.487 307.892 227.971Z" fill="#191919"/>
</svg>
